<svg width="100%" height="100%" viewBox="0 0 960 600" preserveAspectRatio="xMidYMax slice" xmlns="http://www.w3.org/2000/svg" role="img">
<defs>
<g id="fr"><path d="M0,0 C-16,-7 -28,-25 -25,-42 C-22,-55 -9,-58 0,-46 C9,-58 22,-55 25,-42 C28,-25 16,-7 0,0Z"/></g>
<g id="hR"><use href="#fr" fill="#d63031" opacity="0.68"/><use href="#fr" fill="#d63031" opacity="0.62" transform="rotate(72)"/><use href="#fr" fill="#d63031" opacity="0.57" transform="rotate(144)"/><use href="#fr" fill="#d63031" opacity="0.65" transform="rotate(216)"/><use href="#fr" fill="#d63031" opacity="0.72" transform="rotate(288)"/><circle r="5" fill="#8b1a1a"/><line y2="-26" stroke="#c43030" stroke-width="1.8" stroke-linecap="round"/><circle cy="-26" r="1.8" fill="#e8c840"/></g>
<g id="hO"><use href="#fr" fill="#e67e22" opacity="0.68"/><use href="#fr" fill="#e67e22" opacity="0.62" transform="rotate(72)"/><use href="#fr" fill="#e67e22" opacity="0.57" transform="rotate(144)"/><use href="#fr" fill="#e67e22" opacity="0.65" transform="rotate(216)"/><use href="#fr" fill="#e67e22" opacity="0.72" transform="rotate(288)"/><circle r="5" fill="#8b4a10"/><line y2="-26" stroke="#c06820" stroke-width="1.8" stroke-linecap="round"/><circle cy="-26" r="1.8" fill="#e8c840"/></g>
<g id="hB"><use href="#fr" fill="#2980b9" opacity="0.68"/><use href="#fr" fill="#2980b9" opacity="0.62" transform="rotate(72)"/><use href="#fr" fill="#2980b9" opacity="0.57" transform="rotate(144)"/><use href="#fr" fill="#2980b9" opacity="0.65" transform="rotate(216)"/><use href="#fr" fill="#2980b9" opacity="0.72" transform="rotate(288)"/><circle r="5" fill="#14456b"/><line y2="-26" stroke="#2070a0" stroke-width="1.8" stroke-linecap="round"/><circle cy="-26" r="1.8" fill="#e8c840"/></g>
<g id="hG"><use href="#fr" fill="#27ae60" opacity="0.68"/><use href="#fr" fill="#27ae60" opacity="0.62" transform="rotate(72)"/><use href="#fr" fill="#27ae60" opacity="0.57" transform="rotate(144)"/><use href="#fr" fill="#27ae60" opacity="0.65" transform="rotate(216)"/><use href="#fr" fill="#27ae60" opacity="0.72" transform="rotate(288)"/><circle r="5" fill="#145a30"/><line y2="-26" stroke="#20804a" stroke-width="1.8" stroke-linecap="round"/><circle cy="-26" r="1.8" fill="#e8c840"/></g>
<g id="hGy"><path d="M0,0 C-13,-6 -22,-20 -20,-34 C-18,-44 -7,-47 0,-37 C7,-47 18,-44 20,-34 C22,-20 13,-6 0,0Z" fill="#7f8c8d" opacity="0.55"/><path d="M0,0 C-13,-6 -22,-20 -20,-34 C-18,-44 -7,-47 0,-37 C7,-47 18,-44 20,-34 C22,-20 13,-6 0,0Z" fill="#7f8c8d" opacity="0.5" transform="rotate(72)"/><path d="M0,0 C-13,-6 -22,-20 -20,-34 C-18,-44 -7,-47 0,-37 C7,-47 18,-44 20,-34 C22,-20 13,-6 0,0Z" fill="#7f8c8d" opacity="0.45" transform="rotate(144)"/><path d="M0,0 C-13,-6 -22,-20 -20,-34 C-18,-44 -7,-47 0,-37 C7,-47 18,-44 20,-34 C22,-20 13,-6 0,0Z" fill="#7f8c8d" opacity="0.52" transform="rotate(216)"/><path d="M0,0 C-13,-6 -22,-20 -20,-34 C-18,-44 -7,-47 0,-37 C7,-47 18,-44 20,-34 C22,-20 13,-6 0,0Z" fill="#7f8c8d" opacity="0.58" transform="rotate(288)"/><circle r="4" fill="#555"/></g>
<g id="pm">
<!-- Palm tree crown: 8 pinnate compound fronds radiating from origin -->
<!-- Each frond = elongated leaf shape (rachis + integrated leaflets), narrow at base, wide-middle, pointed tip -->
<!-- Darker base layer (shadow) + lighter top layer (highlight) for depth -->
<!-- Frond 1: pointing left horizontal -->
<g><path d="M0,-2 Q-15,-8 -35,-10 Q-55,-9 -72,-4 Q-55,-1 -35,2 Q-15,3 0,2 Z" fill="#2d6620" opacity="0.95"/><path d="M-3,-3 Q-15,-9 -35,-11 Q-55,-10 -70,-5 Q-58,-7 -45,-9 Q-25,-10 -10,-7 Q-5,-5 -3,-3 Z" fill="#4a9035" opacity="0.85"/></g>
<!-- Frond 2: pointing right horizontal -->
<g><path d="M0,-2 Q15,-8 35,-10 Q55,-9 72,-4 Q55,-1 35,2 Q15,3 0,2 Z" fill="#2d6620" opacity="0.95"/><path d="M3,-3 Q15,-9 35,-11 Q55,-10 70,-5 Q58,-7 45,-9 Q25,-10 10,-7 Q5,-5 3,-3 Z" fill="#4a9035" opacity="0.85"/></g>
<!-- Frond 3: upper-left diagonal -->
<g transform="rotate(-45)"><path d="M0,-2 Q-13,-7 -30,-9 Q-48,-8 -64,-3 Q-48,0 -30,2 Q-13,3 0,2 Z" fill="#2d6620" opacity="0.95"/><path d="M-2,-3 Q-13,-8 -30,-10 Q-48,-9 -62,-4 Q-50,-6 -38,-8 Q-22,-9 -8,-6 Q-4,-4 -2,-3 Z" fill="#5aa040" opacity="0.85"/></g>
<!-- Frond 4: upper-right diagonal -->
<g transform="rotate(45)"><path d="M0,-2 Q13,-7 30,-9 Q48,-8 64,-3 Q48,0 30,2 Q13,3 0,2 Z" fill="#2d6620" opacity="0.95"/><path d="M2,-3 Q13,-8 30,-10 Q48,-9 62,-4 Q50,-6 38,-8 Q22,-9 8,-6 Q4,-4 2,-3 Z" fill="#5aa040" opacity="0.85"/></g>
<!-- Frond 5: top vertical (slightly arched) -->
<g transform="rotate(-90)"><path d="M0,-2 Q-10,-6 -22,-7 Q-38,-6 -52,-2 Q-38,1 -22,2 Q-10,3 0,2 Z" fill="#2d6620" opacity="0.95"/><path d="M-2,-3 Q-10,-7 -22,-8 Q-38,-7 -50,-3 Q-40,-5 -28,-6 Q-16,-7 -5,-5 Q-3,-4 -2,-3 Z" fill="#5aa040" opacity="0.85"/></g>
<!-- Frond 6: lower-left (drooping) -->
<g transform="rotate(-20)"><path d="M0,-1 Q-15,4 -38,9 Q-58,11 -72,7 Q-55,3 -38,1 Q-15,-1 0,0 Z" fill="#2d6620" opacity="0.9"/><path d="M-3,0 Q-15,5 -38,10 Q-58,12 -70,8 Q-58,6 -45,4 Q-25,2 -10,1 Q-5,0 -3,0 Z" fill="#4a8a30" opacity="0.75"/></g>
<!-- Frond 7: lower-right (drooping) -->
<g transform="rotate(20)"><path d="M0,-1 Q15,4 38,9 Q58,11 72,7 Q55,3 38,1 Q15,-1 0,0 Z" fill="#2d6620" opacity="0.9"/><path d="M3,0 Q15,5 38,10 Q58,12 70,8 Q58,6 45,4 Q25,2 10,1 Q5,0 3,0 Z" fill="#4a8a30" opacity="0.75"/></g>
<!-- Frond 8: short top-left filler -->
<g transform="rotate(-70)"><path d="M0,-2 Q-8,-5 -20,-6 Q-35,-5 -45,-1 Q-32,1 -20,2 Q-8,3 0,1 Z" fill="#2d6620" opacity="0.9"/><path d="M-2,-3 Q-8,-5 -20,-7 Q-35,-6 -42,-2 Q-32,-3 -22,-5 Q-12,-6 -4,-4 Z" fill="#5aa040" opacity="0.75"/></g>
<!-- Frond 9: short top-right filler -->
<g transform="rotate(70)"><path d="M0,-2 Q8,-5 20,-6 Q35,-5 45,-1 Q32,1 20,2 Q8,3 0,1 Z" fill="#2d6620" opacity="0.9"/><path d="M2,-3 Q8,-5 20,-7 Q35,-6 42,-2 Q32,-3 22,-5 Q12,-6 4,-4 Z" fill="#5aa040" opacity="0.75"/></g>
<!-- Center connection point: small dark spot where fronds meet trunk -->
<circle r="3.5" fill="#1f4a18"/>
</g>
<!-- Urban element defs -->
<g id="lamp"><rect x="-1" y="-46" width="2" height="48" fill="#3a3a3a"/><circle cx="0" cy="-50" r="4.5" fill="#f5b85a" opacity="0.85"/><circle cx="0" cy="-50" r="3" fill="#ffd870" opacity="0.95"/><rect x="-3.5" y="0" width="7" height="3" fill="#3a3a3a" rx="1"/></g>
<g id="bench"><rect x="-14" y="-3" width="28" height="3" fill="#7a5a30" rx="0.8"/><rect x="-14" y="2" width="28" height="3" fill="#7a5a30" rx="0.8"/><rect x="-13" y="5" width="2" height="6" fill="#5a4020"/><rect x="11" y="5" width="2" height="6" fill="#5a4020"/><rect x="-14" y="-8" width="28" height="2" fill="#5a4020" rx="0.5" opacity="0.7"/></g>
<g id="sign"><rect x="-0.6" y="-26" width="1.2" height="28" fill="#444"/><rect x="-10" y="-28" width="20" height="10" fill="#2d6caa" stroke="#1a4a82" stroke-width="0.5" rx="1"/><line x1="-7" y1="-24" x2="7" y2="-24" stroke="white" stroke-width="0.4" opacity="0.7"/><line x1="-7" y1="-22" x2="5" y2="-22" stroke="white" stroke-width="0.4" opacity="0.7"/></g>
<g id="shopfront"><rect x="-22" y="-44" width="44" height="44" fill="#c0a888" stroke="#9a8060" stroke-width="0.6"/><rect x="-22" y="-44" width="44" height="8" fill="#a08868"/><rect x="-18" y="-30" width="14" height="22" fill="#5a8aaa" opacity="0.7"/><rect x="4" y="-30" width="14" height="22" fill="#5a8aaa" opacity="0.7"/><rect x="-3" y="-12" width="6" height="12" fill="#7a5a30"/><text x="0" y="-38" text-anchor="middle" font-family="Arial" font-size="4.5" fill="#3a2a18" font-weight="700">KEDAI</text><circle cx="-15" cy="-38" r="1" fill="#d63031" opacity="0.7"/><circle cx="-11" cy="-38" r="1" fill="#27ae60" opacity="0.7"/><circle cx="13" cy="-38" r="1" fill="#2980b9" opacity="0.7"/></g>
</defs>
<linearGradient id="sk" x1="0" y1="0" x2="0" y2="1"><stop offset="0%" stop-color="#d4eaf7"/><stop offset="50%" stop-color="#eee8d0"/><stop offset="100%" stop-color="#e0d8c0"/></linearGradient>
<rect width="960" height="600" fill="url(#sk)"/>
<g opacity="0.15"><rect x="30" y="185" width="14" height="55" fill="#6a7a8a"/><rect x="55" y="175" width="18" height="65" fill="#6a7a8a"/><rect x="110" y="180" width="16" height="60" fill="#6a7a8a"/><rect x="145" y="170" width="20" height="70" fill="#6a7a8a"/><rect x="200" y="178" width="18" height="62" fill="#6a7a8a"/><rect x="235" y="168" width="22" height="72" fill="#6a7a8a"/><rect x="295" y="175" width="20" height="65" fill="#6a7a8a"/><rect x="380" y="100" width="28" height="140" fill="#6a7a8a"/><rect x="460" y="100" width="28" height="140" fill="#6a7a8a"/><polygon points="380,100 394,63 408,100" fill="#6a7a8a"/><polygon points="460,100 474,63 488,100" fill="#6a7a8a"/><rect x="408" y="137" width="52" height="8" fill="#6a7a8a"/><rect x="330" y="133" width="10" height="107" fill="#6a7a8a"/><polygon points="330,133 335,93 340,133" fill="#6a7a8a"/><ellipse cx="335" cy="151" rx="12" ry="4.5" fill="#6a7a8a"/><rect x="500" y="165" width="24" height="75" fill="#6a7a8a"/><rect x="535" y="178" width="20" height="62" fill="#6a7a8a"/><rect x="570" y="172" width="16" height="68" fill="#6a7a8a"/><rect x="640" y="170" width="18" height="70" fill="#6a7a8a"/><rect x="700" y="175" width="22" height="65" fill="#6a7a8a"/><rect x="765" y="178" width="18" height="62" fill="#6a7a8a"/><rect x="830" y="180" width="20" height="60" fill="#6a7a8a"/><rect x="865" y="190" width="16" height="50" fill="#6a7a8a"/></g>
<ellipse cx="250" cy="268" rx="180" ry="25" fill="#a0c080" opacity="0.38"/><ellipse cx="550" cy="265" rx="200" ry="22" fill="#95b870" opacity="0.35"/><ellipse cx="800" cy="268" rx="160" ry="24" fill="#a0c080" opacity="0.36"/>
<!-- Urban elements layer: shopfronts behind, lampposts + benches + signs in front. Positioned along the ground line ~y=265 -->
<g><!-- 3 shopfronts in mid-ground -->
  <g transform="translate(420,266)"><use href="#shopfront"/></g>
  <g transform="translate(540,266)"><use href="#shopfront"/></g>
  <g transform="translate(620,266) scale(0.85)"><use href="#shopfront"/></g>
</g>
<g><!-- Lampposts spread across mid-ground -->
  <g transform="translate(360,265)"><use href="#lamp"/></g>
  <g transform="translate(485,265)"><use href="#lamp"/></g>
  <g transform="translate(590,265)"><use href="#lamp"/></g>
  <g transform="translate(680,265)"><use href="#lamp"/></g>
  <g transform="translate(870,265)"><use href="#lamp"/></g>
</g>
<g><!-- Benches near the path / public spaces -->
  <g transform="translate(380,267)"><use href="#bench"/></g>
  <g transform="translate(672,267)"><use href="#bench"/></g>
  <g transform="translate(890,267)"><use href="#bench"/></g>
</g>
<g><!-- Street signs at corners + intersections -->
  <g transform="translate(330,267)"><use href="#sign"/></g>
  <g transform="translate(720,267)"><use href="#sign"/></g>
  <g transform="translate(60,267)"><use href="#sign"/></g>
</g>
<g transform="translate(180,260) scale(0.05)"><use href="#hR"/></g><g transform="translate(220,258) scale(0.05)"><use href="#hG"/></g><g transform="translate(260,262) scale(0.04)"><use href="#hB"/></g><g transform="translate(300,259) scale(0.05)"><use href="#hG"/></g><g transform="translate(340,261) scale(0.04)"><use href="#hR"/></g><g transform="translate(380,258) scale(0.05)"><use href="#hG"/></g><g transform="translate(420,262) scale(0.04)"><use href="#hB"/></g><g transform="translate(460,260) scale(0.05)"><use href="#hR"/></g><g transform="translate(500,258) scale(0.04)"><use href="#hG"/></g><g transform="translate(540,261) scale(0.05)"><use href="#hB"/></g><g transform="translate(580,259) scale(0.04)"><use href="#hR"/></g><g transform="translate(620,262) scale(0.05)"><use href="#hG"/></g><g transform="translate(660,258) scale(0.04)"><use href="#hB"/></g><g transform="translate(700,261) scale(0.05)"><use href="#hG"/></g><g transform="translate(740,259) scale(0.04)"><use href="#hR"/></g><g transform="translate(780,262) scale(0.05)"><use href="#hG"/></g><g transform="translate(810,260) scale(0.04)"><use href="#hB"/></g>
<g transform="translate(200,267) scale(0.04)"><use href="#hB"/></g><g transform="translate(250,265) scale(0.05)"><use href="#hR"/></g><g transform="translate(310,269) scale(0.04)"><use href="#hG"/></g><g transform="translate(370,266) scale(0.04)"><use href="#hO"/></g><g transform="translate(430,268) scale(0.05)"><use href="#hG"/></g><g transform="translate(490,265) scale(0.04)"><use href="#hR"/></g><g transform="translate(550,268) scale(0.05)"><use href="#hG"/></g><g transform="translate(610,265) scale(0.04)"><use href="#hB"/></g><g transform="translate(670,268) scale(0.04)"><use href="#hO"/></g><g transform="translate(730,265) scale(0.05)"><use href="#hG"/></g><g transform="translate(790,268) scale(0.04)"><use href="#hB"/></g><g transform="translate(800,265) scale(0.04)"><use href="#hGy"/></g>
<g transform="translate(230,273) scale(0.04)"><use href="#hG"/></g><g transform="translate(290,271) scale(0.05)"><use href="#hR"/></g><g transform="translate(360,274) scale(0.04)"><use href="#hB"/></g><g transform="translate(440,271) scale(0.05)"><use href="#hG"/></g><g transform="translate(520,274) scale(0.04)"><use href="#hR"/></g><g transform="translate(600,271) scale(0.04)"><use href="#hG"/></g><g transform="translate(680,274) scale(0.05)"><use href="#hB"/></g><g transform="translate(760,271) scale(0.04)"><use href="#hG"/></g><g transform="translate(800,274) scale(0.04)"><use href="#hR"/></g>
<g transform="translate(15,60)"><rect x="-4" y="0" width="8" height="220" fill="#7a5a30" rx="3"/><use href="#pm"/><circle cx="-7" cy="12" r="5" fill="#8a7a40" opacity="0.55"/><circle cx="5" cy="15" r="4.5" fill="#8a7a40" opacity="0.5"/></g><g transform="translate(90,85)"><rect x="-4" y="0" width="8" height="190" fill="#7a5a30" rx="3"/><use href="#pm" transform="scale(0.85)"/></g><g transform="translate(170,75)"><rect x="-4" y="0" width="8" height="200" fill="#7a5a30" rx="3"/><use href="#pm" transform="scale(0.9)"/><circle cx="-6" cy="10" r="4.5" fill="#8a7a40" opacity="0.5"/></g><g transform="translate(250,100)"><rect x="-3" y="0" width="6" height="172" fill="#7a5a30" rx="2"/><use href="#pm" transform="scale(0.78)"/></g><g transform="translate(660,90)"><rect x="-3" y="0" width="6" height="182" fill="#7a5a30" rx="2"/><use href="#pm" transform="scale(0.82)"/></g><g transform="translate(740,72)"><rect x="-4" y="0" width="8" height="205" fill="#7a5a30" rx="3"/><use href="#pm" transform="scale(0.92)"/><circle cx="-6" cy="11" r="5" fill="#8a7a40" opacity="0.52"/></g><g transform="translate(820,88)"><rect x="-4" y="0" width="8" height="190" fill="#7a5a30" rx="3"/><use href="#pm" transform="scale(0.88)"/></g><g transform="translate(900,75)"><rect x="-4" y="0" width="8" height="200" fill="#7a5a30" rx="3"/><use href="#pm" transform="scale(0.9)"/><circle cx="-5" cy="10" r="4" fill="#8a7a40" opacity="0.48"/></g><g transform="translate(130,108)"><rect x="-3" y="0" width="6" height="165" fill="#7a5a30" rx="2"/><use href="#pm" transform="scale(0.75)"/></g><g transform="translate(780,102)"><rect x="-3" y="0" width="6" height="172" fill="#7a5a30" rx="2"/><use href="#pm" transform="scale(0.78)"/></g><g transform="translate(700,108)"><rect x="-3" y="0" width="6" height="165" fill="#7a5a30" rx="2"/><use href="#pm" transform="scale(0.72)"/></g>
<g transform="translate(195,278)"><path d="M0,28 Q3,14 0,0 Q-16,9 -28,25" fill="#4a9035" opacity="0.65"/><path d="M0,28 Q3,14 0,0 Q16,9 28,25" fill="#55a040" opacity="0.6"/></g><g transform="translate(770,272)"><path d="M0,30 Q3,15 0,0 Q-18,10 -30,27" fill="#4a9035" opacity="0.65"/><path d="M0,30 Q3,15 0,0 Q18,10 30,27" fill="#55a040" opacity="0.6"/></g>
<path d="M0,400 Q250,372 480,365 Q720,360 960,380 L960,600 L0,600 Z" fill="#68a84a"/><path d="M0,415 Q250,388 480,380 Q720,375 960,395 L960,600 L0,600 Z" fill="#5a9a40"/>
<path d="M-20,435 Q60,340 140,435" fill="#52a042" stroke="#468a36" stroke-width="1.5"/><path d="M-10,435 Q60,350 130,435" fill="#48943a"/><path d="M165,450 Q295,340 425,450" fill="#52a042" stroke="#468a36" stroke-width="1.5"/><path d="M178,450 Q295,352 412,450" fill="#48943a"/><path d="M630,440 Q735,330 840,440" fill="#52a042" stroke="#468a36" stroke-width="1.5"/><path d="M642,440 Q735,342 828,440" fill="#48943a"/><path d="M848,448 Q925,358 960,448" fill="#52a042" stroke="#468a36" stroke-width="1.5"/><path d="M855,448 Q925,368 960,448" fill="#48943a"/>
<path d="M512,286 Q522,278 535,273 Q545,270 550,268" fill="#c49a55" opacity="0.5" stroke="#b08540" stroke-width="0.8"/><path d="M535,286 Q542,278 548,273 Q555,270 558,268" fill="#c49a55" opacity="0.5"/><ellipse cx="538" cy="280" rx="3" ry="1.2" fill="#b89050" opacity="0.25"/><ellipse cx="548" cy="274" rx="2.5" ry="1" fill="#b89050" opacity="0.2"/><path d="M498,328 Q506,312 512,298 Q514,290 512,286" fill="#c49a55" opacity="0.6" stroke="#b08540" stroke-width="1"/><path d="M525,328 Q532,312 535,298 Q536,290 535,286" fill="#c49a55" opacity="0.6"/><ellipse cx="518" cy="320" rx="4" ry="1.5" fill="#b89050" opacity="0.28"/><ellipse cx="515" cy="308" rx="3.5" ry="1.3" fill="#b89050" opacity="0.24"/><ellipse cx="514" cy="296" rx="3" ry="1.2" fill="#b89050" opacity="0.2"/><path d="M515,395 Q508,375 502,358 Q498,342 498,328" fill="#c49a55" opacity="0.8" stroke="#b08540" stroke-width="1.2"/><path d="M558,395 Q548,375 540,358 Q535,342 525,328" fill="#c49a55" opacity="0.8"/><ellipse cx="540" cy="388" rx="6" ry="2.2" fill="#b89050" opacity="0.32"/><ellipse cx="530" cy="372" rx="5.5" ry="2" fill="#b89050" opacity="0.28"/><ellipse cx="522" cy="358" rx="5" ry="1.8" fill="#b89050" opacity="0.25"/><ellipse cx="516" cy="345" rx="4.5" ry="1.6" fill="#b89050" opacity="0.22"/><path d="M530,600 C524,568 518,536 515,505 C512,475 512,450 515,395" fill="#c49a55" stroke="#b08540" stroke-width="1.5"/><path d="M635,600 C626,566 616,534 608,505 C600,475 592,450 558,395" fill="#c49a55" stroke="#b08540" stroke-width="1.5"/><ellipse cx="578" cy="578" rx="24" ry="7" fill="#a88040" opacity="0.35"/><ellipse cx="570" cy="548" rx="20" ry="6" fill="#a88040" opacity="0.32"/><ellipse cx="562" cy="520" rx="18" ry="5.5" fill="#a88040" opacity="0.3"/><ellipse cx="555" cy="495" rx="16" ry="5" fill="#a88040" opacity="0.28"/><ellipse cx="548" cy="470" rx="14" ry="4.5" fill="#a88040" opacity="0.25"/><ellipse cx="540" cy="448" rx="12" ry="4" fill="#a88040" opacity="0.22"/><ellipse cx="534" cy="428" rx="10" ry="3.5" fill="#a88040" opacity="0.2"/><ellipse cx="528" cy="410" rx="8" ry="3" fill="#a88040" opacity="0.18"/>
<rect x="80" y="362" width="12" height="72" fill="#7a5a30" rx="2"/><rect x="340" y="362" width="12" height="72" fill="#7a5a30" rx="2"/><rect x="74" y="215" width="284" height="154" fill="#8a6a38" rx="4"/><rect x="80" y="220" width="272" height="144" fill="#f0e8d0" rx="3"/><path d="M84,224 C120,218 215,218 348,224" fill="none" stroke="#4a8a35" stroke-width="2" opacity="0.65"/><path d="M84,224 C84,280 84,340 84,360" fill="none" stroke="#4a8a35" stroke-width="1.8" opacity="0.6"/><path d="M348,224 C348,280 348,340 348,360" fill="none" stroke="#4a8a35" stroke-width="1.8" opacity="0.6"/><path d="M84,360 C120,366 215,366 348,360" fill="none" stroke="#4a8a35" stroke-width="2" opacity="0.65"/><path d="M88,226 C85,218 92,214 95,220" fill="none" stroke="#4a8a35" stroke-width="1.2" opacity="0.5"/><path d="M344,226 C347,218 340,214 337,220" fill="none" stroke="#4a8a35" stroke-width="1.2" opacity="0.5"/><path d="M88,358 C85,366 92,370 95,364" fill="none" stroke="#4a8a35" stroke-width="1.2" opacity="0.5"/><path d="M344,358 C347,366 340,370 337,364" fill="none" stroke="#4a8a35" stroke-width="1.2" opacity="0.5"/><g transform="translate(96,218) scale(0.09)"><use href="#hR"/></g><g transform="translate(336,218) scale(0.09)"><use href="#hB"/></g><g transform="translate(96,362) scale(0.09)"><use href="#hG"/></g><g transform="translate(336,362) scale(0.09)"><use href="#hR"/></g>
<text x="216" y="258" text-anchor="middle" font-family="Georgia,serif" font-size="16" fill="#5a3e1a" font-weight="700">Bila Bahasa Menjadi Bunga</text><text x="216" y="280" text-anchor="middle" font-family="Georgia,serif" font-size="13" fill="#6b4e2a" font-weight="500">Bermekaran di Ruang Awam Kota</text><line x1="120" y1="288" x2="312" y2="288" stroke="#c4a878" stroke-width="0.6"/><text x="216" y="308" text-anchor="middle" font-family="Georgia,serif" font-size="11" fill="#7a5a35">当语言化作花朵，绽放在都市公共空间里</text><text x="216" y="325" text-anchor="middle" font-family="Georgia,serif" font-size="9" fill="#7a5a35">மொழி மலராகி, நகரின் பொது வெளியில் மலர்கிறது</text><text x="216" y="341" text-anchor="middle" font-family="Georgia,serif" font-size="10" fill="#7a5a35" font-style="italic">When Language Becomes Flower,</text><text x="216" y="355" text-anchor="middle" font-family="Georgia,serif" font-size="10" fill="#7a5a35" font-style="italic">Blooming in Urban Public Space</text>
<g transform="translate(25,385) scale(0.34)"><use href="#hR"/></g><g transform="translate(55,378) scale(0.32)"><use href="#hG"/></g><g transform="translate(82,385) scale(0.3)"><use href="#hB"/></g><g transform="translate(40,395) scale(0.28)"><use href="#hR"/></g><g transform="translate(68,392) scale(0.26)"><use href="#hG"/></g><g transform="translate(95,388) scale(0.28)"><use href="#hB"/></g><g transform="translate(15,400) scale(0.26)"><use href="#hG"/></g><g transform="translate(50,405) scale(0.24)"><use href="#hR"/></g><g transform="translate(78,408) scale(0.22)"><use href="#hB"/></g><g transform="translate(62,415) scale(0.2)"><use href="#hGy"/></g><g transform="translate(100,402) scale(0.22)"><use href="#hR"/></g>
<g transform="translate(220,392) scale(0.34)"><use href="#hO"/></g><g transform="translate(260,388) scale(0.32)"><use href="#hG"/></g><g transform="translate(300,395) scale(0.3)"><use href="#hB"/></g><g transform="translate(340,390) scale(0.28)"><use href="#hG"/></g><g transform="translate(245,402) scale(0.3)"><use href="#hB"/></g><g transform="translate(285,400) scale(0.28)"><use href="#hO"/></g><g transform="translate(320,405) scale(0.26)"><use href="#hG"/></g><g transform="translate(200,412) scale(0.28)"><use href="#hG"/></g><g transform="translate(255,415) scale(0.26)"><use href="#hB"/></g><g transform="translate(305,418) scale(0.24)"><use href="#hO"/></g><g transform="translate(360,410) scale(0.22)"><use href="#hG"/></g><g transform="translate(380,405) scale(0.22)"><use href="#hGy"/></g><g transform="translate(275,428) scale(0.22)"><use href="#hG"/></g>
<g transform="translate(680,382) scale(0.34)"><use href="#hR"/></g><g transform="translate(720,378) scale(0.32)"><use href="#hG"/></g><g transform="translate(755,385) scale(0.3)"><use href="#hB"/></g><g transform="translate(700,392) scale(0.28)"><use href="#hR"/></g><g transform="translate(740,388) scale(0.3)"><use href="#hG"/></g><g transform="translate(775,395) scale(0.26)"><use href="#hB"/></g><g transform="translate(660,400) scale(0.28)"><use href="#hG"/></g><g transform="translate(695,405) scale(0.26)"><use href="#hR"/></g><g transform="translate(730,408) scale(0.28)"><use href="#hB"/></g><g transform="translate(765,402) scale(0.24)"><use href="#hG"/></g><g transform="translate(790,398) scale(0.22)"><use href="#hGy"/></g>
<g transform="translate(878,390) scale(0.32)"><use href="#hG"/></g><g transform="translate(912,385) scale(0.3)"><use href="#hG"/></g><g transform="translate(942,392) scale(0.28)"><use href="#hB"/></g><g transform="translate(898,400) scale(0.28)"><use href="#hG"/></g><g transform="translate(928,405) scale(0.26)"><use href="#hR"/></g><g transform="translate(882,412) scale(0.24)"><use href="#hG"/></g><g transform="translate(915,415) scale(0.22)"><use href="#hB"/></g><g transform="translate(948,408) scale(0.22)"><use href="#hGy"/></g>
<g transform="translate(500,400) scale(0.2)"><use href="#hR"/></g><g transform="translate(490,420) scale(0.18)"><use href="#hG"/></g><g transform="translate(498,440) scale(0.16)"><use href="#hB"/></g><g transform="translate(492,458) scale(0.17)"><use href="#hR"/></g><g transform="translate(500,475) scale(0.15)"><use href="#hG"/></g><g transform="translate(493,492) scale(0.16)"><use href="#hB"/></g><g transform="translate(500,510) scale(0.14)"><use href="#hR"/></g><g transform="translate(495,528) scale(0.15)"><use href="#hG"/></g><g transform="translate(502,545) scale(0.13)"><use href="#hB"/></g><g transform="translate(497,562) scale(0.14)"><use href="#hR"/></g><g transform="translate(505,578) scale(0.12)"><use href="#hG"/></g><g transform="translate(488,450) scale(0.13)"><use href="#hO"/></g><g transform="translate(508,520) scale(0.12)"><use href="#hGy"/></g>
<g transform="translate(575,400) scale(0.2)"><use href="#hG"/></g><g transform="translate(585,418) scale(0.18)"><use href="#hR"/></g><g transform="translate(598,438) scale(0.16)"><use href="#hB"/></g><g transform="translate(608,455) scale(0.17)"><use href="#hG"/></g><g transform="translate(615,472) scale(0.15)"><use href="#hR"/></g><g transform="translate(622,490) scale(0.16)"><use href="#hG"/></g><g transform="translate(628,508) scale(0.14)"><use href="#hB"/></g><g transform="translate(635,525) scale(0.15)"><use href="#hR"/></g><g transform="translate(640,542) scale(0.13)"><use href="#hG"/></g><g transform="translate(645,558) scale(0.14)"><use href="#hB"/></g><g transform="translate(650,575) scale(0.12)"><use href="#hR"/></g><g transform="translate(590,432) scale(0.13)"><use href="#hO"/></g><g transform="translate(632,515) scale(0.12)"><use href="#hGy"/></g>
<g transform="translate(475,395) scale(0.18)"><use href="#hG"/></g><g transform="translate(482,378) scale(0.16)"><use href="#hR"/></g><g transform="translate(478,358) scale(0.15)"><use href="#hB"/></g><g transform="translate(485,342) scale(0.14)"><use href="#hG"/></g><g transform="translate(490,332) scale(0.13)"><use href="#hR"/></g>
<g transform="translate(568,395) scale(0.18)"><use href="#hB"/></g><g transform="translate(558,378) scale(0.16)"><use href="#hG"/></g><g transform="translate(550,358) scale(0.15)"><use href="#hR"/></g><g transform="translate(545,342) scale(0.14)"><use href="#hG"/></g><g transform="translate(538,332) scale(0.13)"><use href="#hB"/></g>
<g transform="translate(482,325) scale(0.12)"><use href="#hG"/></g><g transform="translate(486,312) scale(0.11)"><use href="#hR"/></g><g transform="translate(490,298) scale(0.1)"><use href="#hB"/></g><g transform="translate(494,290) scale(0.09)"><use href="#hG"/></g>
<g transform="translate(542,325) scale(0.12)"><use href="#hR"/></g><g transform="translate(545,312) scale(0.11)"><use href="#hG"/></g><g transform="translate(540,298) scale(0.1)"><use href="#hB"/></g><g transform="translate(548,290) scale(0.09)"><use href="#hG"/></g>
<g transform="translate(500,282) scale(0.07)"><use href="#hR"/></g><g transform="translate(505,275) scale(0.06)"><use href="#hG"/></g><g transform="translate(555,282) scale(0.07)"><use href="#hB"/></g><g transform="translate(560,275) scale(0.06)"><use href="#hG"/></g>
<g transform="translate(625,435) scale(0.16)"><use href="#hG"/></g><g transform="translate(650,448) scale(0.14)"><use href="#hR"/></g><g transform="translate(638,462) scale(0.15)"><use href="#hB"/></g><g transform="translate(660,472) scale(0.13)"><use href="#hG"/></g><g transform="translate(632,455) scale(0.12)"><use href="#hR"/></g><g transform="translate(655,440) scale(0.14)"><use href="#hG"/></g><g transform="translate(642,478) scale(0.12)"><use href="#hB"/></g>
<g transform="translate(400,395) scale(0.24)"><use href="#hR"/></g><g transform="translate(440,405) scale(0.22)"><use href="#hG"/></g><g transform="translate(420,420) scale(0.2)"><use href="#hB"/></g><g transform="translate(135,438) scale(0.2)"><use href="#hG"/></g><g transform="translate(165,445) scale(0.18)"><use href="#hR"/></g><g transform="translate(190,440) scale(0.16)"><use href="#hB"/></g><g transform="translate(830,420) scale(0.18)"><use href="#hG"/></g><g transform="translate(848,432) scale(0.16)"><use href="#hB"/></g><g transform="translate(860,445) scale(0.16)"><use href="#hR"/></g><g transform="translate(895,450) scale(0.14)"><use href="#hG"/></g><g transform="translate(925,445) scale(0.16)"><use href="#hB"/></g><g transform="translate(870,462) scale(0.14)"><use href="#hR"/></g><g transform="translate(910,468) scale(0.13)"><use href="#hG"/></g><g transform="translate(940,460) scale(0.14)"><use href="#hB"/></g><g transform="translate(880,478) scale(0.12)"><use href="#hG"/></g><g transform="translate(920,482) scale(0.12)"><use href="#hR"/></g>
<g transform="translate(25,460) scale(0.16)"><use href="#hR"/></g><g transform="translate(67,465) scale(0.14)"><use href="#hG"/></g><g transform="translate(110,458) scale(0.15)"><use href="#hB"/></g><g transform="translate(155,468) scale(0.14)"><use href="#hG"/></g><g transform="translate(200,462) scale(0.16)"><use href="#hR"/></g><g transform="translate(245,470) scale(0.14)"><use href="#hB"/></g><g transform="translate(290,465) scale(0.15)"><use href="#hG"/></g><g transform="translate(340,460) scale(0.14)"><use href="#hR"/></g><g transform="translate(385,468) scale(0.13)"><use href="#hG"/></g><g transform="translate(430,462) scale(0.14)"><use href="#hB"/></g><g transform="translate(745,468) scale(0.14)"><use href="#hR"/></g><g transform="translate(790,460) scale(0.16)"><use href="#hB"/></g><g transform="translate(835,465) scale(0.14)"><use href="#hG"/></g>
<g transform="translate(15,485) scale(0.14)"><use href="#hG"/></g><g transform="translate(55,490) scale(0.13)"><use href="#hB"/></g><g transform="translate(100,488) scale(0.14)"><use href="#hR"/></g><g transform="translate(145,492) scale(0.12)"><use href="#hG"/></g><g transform="translate(190,486) scale(0.14)"><use href="#hB"/></g><g transform="translate(235,492) scale(0.12)"><use href="#hG"/></g><g transform="translate(280,488) scale(0.13)"><use href="#hR"/></g><g transform="translate(325,494) scale(0.12)"><use href="#hG"/></g><g transform="translate(370,490) scale(0.13)"><use href="#hB"/></g><g transform="translate(415,486) scale(0.12)"><use href="#hG"/></g><g transform="translate(750,492) scale(0.12)"><use href="#hR"/></g><g transform="translate(800,486) scale(0.14)"><use href="#hG"/></g><g transform="translate(845,492) scale(0.12)"><use href="#hB"/></g><g transform="translate(895,498) scale(0.11)"><use href="#hG"/></g><g transform="translate(935,495) scale(0.11)"><use href="#hR"/></g>
<g transform="translate(30,510) scale(0.12)"><use href="#hB"/></g><g transform="translate(80,515) scale(0.11)"><use href="#hG"/></g><g transform="translate(130,508) scale(0.13)"><use href="#hR"/></g><g transform="translate(180,514) scale(0.11)"><use href="#hG"/></g><g transform="translate(230,510) scale(0.12)"><use href="#hB"/></g><g transform="translate(280,516) scale(0.11)"><use href="#hG"/></g><g transform="translate(330,512) scale(0.12)"><use href="#hR"/></g><g transform="translate(380,518) scale(0.1)"><use href="#hO"/></g><g transform="translate(430,510) scale(0.12)"><use href="#hG"/></g><g transform="translate(755,510) scale(0.13)"><use href="#hB"/></g><g transform="translate(805,515) scale(0.11)"><use href="#hGy"/></g><g transform="translate(850,512) scale(0.12)"><use href="#hG"/></g><g transform="translate(900,518) scale(0.1)"><use href="#hR"/></g><g transform="translate(940,512) scale(0.11)"><use href="#hG"/></g>
<g transform="translate(20,535) scale(0.11)"><use href="#hG"/></g><g transform="translate(70,540) scale(0.1)"><use href="#hR"/></g><g transform="translate(120,536) scale(0.12)"><use href="#hB"/></g><g transform="translate(175,540) scale(0.1)"><use href="#hG"/></g><g transform="translate(225,538) scale(0.11)"><use href="#hR"/></g><g transform="translate(275,542) scale(0.1)"><use href="#hG"/></g><g transform="translate(325,536) scale(0.11)"><use href="#hB"/></g><g transform="translate(375,540) scale(0.1)"><use href="#hG"/></g><g transform="translate(425,538) scale(0.11)"><use href="#hR"/></g><g transform="translate(750,542) scale(0.1)"><use href="#hR"/></g><g transform="translate(800,536) scale(0.12)"><use href="#hG"/></g><g transform="translate(850,540) scale(0.1)"><use href="#hB"/></g><g transform="translate(900,538) scale(0.11)"><use href="#hG"/></g><g transform="translate(940,535) scale(0.1)"><use href="#hR"/></g>
<g transform="translate(40,558) scale(0.1)"><use href="#hB"/></g><g transform="translate(95,562) scale(0.1)"><use href="#hG"/></g><g transform="translate(150,558) scale(0.11)"><use href="#hR"/></g><g transform="translate(210,562) scale(0.09)"><use href="#hG"/></g><g transform="translate(270,558) scale(0.1)"><use href="#hB"/></g><g transform="translate(330,562) scale(0.09)"><use href="#hG"/></g><g transform="translate(390,558) scale(0.1)"><use href="#hR"/></g><g transform="translate(430,562) scale(0.09)"><use href="#hG"/></g><g transform="translate(770,562) scale(0.09)"><use href="#hR"/></g><g transform="translate(830,558) scale(0.1)"><use href="#hG"/></g><g transform="translate(890,562) scale(0.09)"><use href="#hB"/></g><g transform="translate(940,558) scale(0.1)"><use href="#hG"/></g>
<g transform="translate(420,165)"><ellipse rx="7" ry="4" fill="#4a9a50"/><ellipse cx="-5" cy="-0.5" rx="3.5" ry="2.8" fill="#5aaa58"/><polygon points="-10,-1 -14,0.5 -10,1.5" fill="#e8a020"/><circle cx="-7" cy="-1.5" r="0.7" fill="#333"/><path d="M4,-2 C8,-6 11,-4 8.5,-1" fill="#4a9a50" opacity="0.8"/><path d="M4,1.5 C8,5 10.5,3 8,0.5" fill="#4a9a50" opacity="0.8"/></g><g transform="translate(580,148) scale(0.9)"><ellipse rx="6" ry="3.5" fill="#c04545"/><ellipse cx="-4" cy="-0.5" rx="3" ry="2.5" fill="#d05555"/><polygon points="-7,-1 -11,0.3 -7,1.2" fill="#e8a020"/><circle cx="-6" cy="-1.3" r="0.6" fill="#333"/><path d="M3,-1.8 C6,-5 9,-3 7,-0.8" fill="#c04545" opacity="0.7"/><path d="M3,1 C6,4 8,2.5 6.5,0.3" fill="#c04545" opacity="0.7"/></g><g transform="translate(250,192) scale(0.85)"><ellipse rx="6.5" ry="3.8" fill="#4a9a50"/><ellipse cx="-4.5" cy="-0.5" rx="3.2" ry="2.6" fill="#5aaa58"/><polygon points="-7.5,-1 -11,0.3 -7.5,1.2" fill="#e8a020"/><circle cx="-6.5" cy="-1.4" r="0.65" fill="#333"/><path d="M3.5,-1.8 C7,-5 10,-3.5 8,-1" fill="#4a9a50" opacity="0.7"/><path d="M3.5,1.2 C7,4.2 9.5,2.5 7.5,0.5" fill="#4a9a50" opacity="0.7"/></g><g transform="translate(700,175) scale(0.8)"><ellipse rx="6" ry="3.5" fill="#2980b9" opacity="0.8"/><ellipse cx="-4" cy="-0.5" rx="3" ry="2.5" fill="#3a90c9"/><polygon points="-7,-0.8 -10.5,0.3 -7,1" fill="#e8a020"/><circle cx="-6" cy="-1.3" r="0.6" fill="#333"/><path d="M3,-1.8 C6,-5 9,-3 7,-0.8" fill="#2980b9" opacity="0.6"/><path d="M3,1 C6,4 8,2.5 6.5,0.3" fill="#2980b9" opacity="0.6"/></g><g transform="translate(150,222) scale(0.75)"><ellipse rx="5.5" ry="3.2" fill="#e67e22" opacity="0.7"/><ellipse cx="-3.5" cy="-0.5" rx="2.8" ry="2.3" fill="#e89040"/><polygon points="-6.3,-0.8 -9.5,0.2 -6.3,1" fill="#c87020"/><circle cx="-5.5" cy="-1.2" r="0.55" fill="#333"/><path d="M2.8,-1.5 C5.5,-4.5 8,-2.5 6,-0.5" fill="#e67e22" opacity="0.5"/><path d="M2.8,0.8 C5.5,3.5 7.5,2 5.5,0.2" fill="#e67e22" opacity="0.5"/></g>
<g transform="translate(350,255)"><path d="M0,0 C-7,-9 -12,-7 -9,0 C-12,7 -7,9 0,0Z" fill="#e67e22" opacity="0.6"/><path d="M0,0 C7,-9 12,-7 9,0 C12,7 7,9 0,0Z" fill="#27ae60" opacity="0.55"/><circle r="0.8" fill="#333"/></g><g transform="translate(600,220)"><path d="M0,0 C-6,-8 -11,-6 -8,0 C-11,6 -6,8 0,0Z" fill="#2980b9" opacity="0.55"/><path d="M0,0 C6,-8 11,-6 8,0 C11,6 6,8 0,0Z" fill="#2980b9" opacity="0.5"/><circle r="0.7" fill="#333"/></g><g transform="translate(180,330)"><path d="M0,0 C-6,-8 -10,-6 -8,0 C-10,6 -6,8 0,0Z" fill="#d63031" opacity="0.5"/><path d="M0,0 C6,-8 10,-6 8,0 C10,6 6,8 0,0Z" fill="#27ae60" opacity="0.45"/><circle r="0.7" fill="#333"/></g><g transform="translate(750,290)"><path d="M0,0 C-7,-9 -12,-7 -9,0 C-12,7 -7,9 0,0Z" fill="#27ae60" opacity="0.5"/><path d="M0,0 C7,-9 12,-7 9,0 C12,7 7,9 0,0Z" fill="#2980b9" opacity="0.45"/><circle r="0.7" fill="#333"/></g><g transform="translate(280,275)"><path d="M0,0 C-5,-7 -9,-5 -7,0 C-9,5 -5,7 0,0Z" fill="#e67e22" opacity="0.5"/><path d="M0,0 C5,-7 9,-5 7,0 C9,5 5,7 0,0Z" fill="#27ae60" opacity="0.45"/><circle r="0.6" fill="#333"/></g><g transform="translate(470,310)"><path d="M0,0 C-5,-7 -9,-5 -7,0 C-9,5 -5,7 0,0Z" fill="#d63031" opacity="0.45"/><path d="M0,0 C5,-7 9,-5 7,0 C9,5 5,7 0,0Z" fill="#2980b9" opacity="0.4"/><circle r="0.6" fill="#333"/></g><g transform="translate(130,300)"><path d="M0,0 C-6,-8 -10,-6 -8,0 C-10,6 -6,8 0,0Z" fill="#27ae60" opacity="0.48"/><path d="M0,0 C6,-8 10,-6 8,0 C10,6 6,8 0,0Z" fill="#d63031" opacity="0.43"/><circle r="0.6" fill="#333"/></g><g transform="translate(850,260)"><path d="M0,0 C-6,-8 -10,-6 -8,0 C-10,6 -6,8 0,0Z" fill="#2980b9" opacity="0.48"/><path d="M0,0 C6,-8 10,-6 8,0 C10,6 6,8 0,0Z" fill="#27ae60" opacity="0.43"/><circle r="0.6" fill="#333"/></g>
</svg>
