<svg xmlns="http://www.w3.org/2000/svg" viewBox="-231 -200 1422 800" preserveAspectRatio="xMidYMax slice" role="img" aria-hidden="true">
<defs>
<g id="fr"><path d="M0,0 C-16,-7 -28,-25 -25,-42 C-22,-55 -9,-58 0,-46 C9,-58 22,-55 25,-42 C28,-25 16,-7 0,0Z"/></g>
<g id="bR"><use href="#fr" fill="#d63031" opacity="0.68" transform="rotate(0)"/><use href="#fr" fill="#d63031" opacity="0.62" transform="rotate(72)"/><use href="#fr" fill="#d63031" opacity="0.57" transform="rotate(144)"/><use href="#fr" fill="#d63031" opacity="0.65" transform="rotate(216)"/><use href="#fr" fill="#d63031" opacity="0.72" transform="rotate(288)"/><circle r="5" fill="#8b1a1a"/><line y2="-26" stroke="#c43030" stroke-width="1.8" stroke-linecap="round"/><circle cy="-26" r="1.8" fill="#e8c840"/></g>
<g id="bO"><use href="#fr" fill="#e67e22" opacity="0.68" transform="rotate(0)"/><use href="#fr" fill="#e67e22" opacity="0.62" transform="rotate(72)"/><use href="#fr" fill="#e67e22" opacity="0.57" transform="rotate(144)"/><use href="#fr" fill="#e67e22" opacity="0.65" transform="rotate(216)"/><use href="#fr" fill="#e67e22" opacity="0.72" transform="rotate(288)"/><circle r="5" fill="#8b4a10"/><line y2="-26" stroke="#c06820" stroke-width="1.8" stroke-linecap="round"/><circle cy="-26" r="1.8" fill="#e8c840"/></g>
<g id="bB"><use href="#fr" fill="#2980b9" opacity="0.68" transform="rotate(0)"/><use href="#fr" fill="#2980b9" opacity="0.62" transform="rotate(72)"/><use href="#fr" fill="#2980b9" opacity="0.57" transform="rotate(144)"/><use href="#fr" fill="#2980b9" opacity="0.65" transform="rotate(216)"/><use href="#fr" fill="#2980b9" opacity="0.72" transform="rotate(288)"/><circle r="5" fill="#14456b"/><line y2="-26" stroke="#2070a0" stroke-width="1.8" stroke-linecap="round"/><circle cy="-26" r="1.8" fill="#e8c840"/></g>
<g id="bG"><use href="#fr" fill="#27ae60" opacity="0.68" transform="rotate(0)"/><use href="#fr" fill="#27ae60" opacity="0.62" transform="rotate(72)"/><use href="#fr" fill="#27ae60" opacity="0.57" transform="rotate(144)"/><use href="#fr" fill="#27ae60" opacity="0.65" transform="rotate(216)"/><use href="#fr" fill="#27ae60" opacity="0.72" transform="rotate(288)"/><circle r="5" fill="#145a30"/><line y2="-26" stroke="#20804a" stroke-width="1.8" stroke-linecap="round"/><circle cy="-26" r="1.8" fill="#e8c840"/></g>
<g id="bGy">
<path d="M0,0 C-13,-6 -22,-20 -20,-34 C-18,-44 -7,-47 0,-37 C7,-47 18,-44 20,-34 C22,-20 13,-6 0,0Z" fill="#7f8c8d" opacity="0.55" transform="rotate(0)"/><path d="M0,0 C-13,-6 -22,-20 -20,-34 C-18,-44 -7,-47 0,-37 C7,-47 18,-44 20,-34 C22,-20 13,-6 0,0Z" fill="#7f8c8d" opacity="0.5" transform="rotate(72)"/><path d="M0,0 C-13,-6 -22,-20 -20,-34 C-18,-44 -7,-47 0,-37 C7,-47 18,-44 20,-34 C22,-20 13,-6 0,0Z" fill="#7f8c8d" opacity="0.45" transform="rotate(144)"/><path d="M0,0 C-13,-6 -22,-20 -20,-34 C-18,-44 -7,-47 0,-37 C7,-47 18,-44 20,-34 C22,-20 13,-6 0,0Z" fill="#7f8c8d" opacity="0.52" transform="rotate(216)"/><path d="M0,0 C-13,-6 -22,-20 -20,-34 C-18,-44 -7,-47 0,-37 C7,-47 18,-44 20,-34 C22,-20 13,-6 0,0Z" fill="#7f8c8d" opacity="0.58" transform="rotate(288)"/>
<circle r="4" fill="#555"/></g>
</defs>
<!-- Ground-level dense overlay — 56 flowers with ZH-TA spatial segregation rule
     LEFT zone (x<280): red ZH + green MS + grey Jawi (no orange TA)
     RIGHT zone (x>720): orange TA + green MS + grey Jawi (no red ZH)
     MIDDLE buffer (280≤x≤720): green MS + blue EN + grey Jawi only
     Min ZH-TA distance: 400px — enforces the visible color crack -->
<g transform="translate(1129,608) scale(0.29)"><use href="#bO"/></g>
<g transform="translate(321,637) scale(0.29)"><use href="#bG"/></g>
<g transform="translate(936,602) scale(0.25)"><use href="#bG"/></g>
<g transform="translate(-119,603) scale(0.23)"><use href="#bR"/></g>
<g transform="translate(1052,586) scale(0.22)"><use href="#bG"/></g>
<g transform="translate(1150,719) scale(0.23)"><use href="#bG"/></g>
<g transform="translate(1026,651) scale(0.3)"><use href="#bB"/></g>
<g transform="translate(146,688) scale(0.23)"><use href="#bR"/></g>
<g transform="translate(260,666) scale(0.21)"><use href="#bR"/></g>
<g transform="translate(18,671) scale(0.24)"><use href="#bB"/></g>
<g transform="translate(361,591) scale(0.26)"><use href="#bGy"/></g>
<g transform="translate(75,676) scale(0.27)"><use href="#bR"/></g>
<g transform="translate(1107,672) scale(0.22)"><use href="#bG"/></g>
<g transform="translate(-38,591) scale(0.23)"><use href="#bGy"/></g>
<g transform="translate(412,600) scale(0.3)"><use href="#bG"/></g>
<g transform="translate(598,651) scale(0.28)"><use href="#bB"/></g>
<g transform="translate(567,621) scale(0.24)"><use href="#bB"/></g>
<g transform="translate(960,636) scale(0.24)"><use href="#bGy"/></g>
<g transform="translate(-66,638) scale(0.2)"><use href="#bB"/></g>
<g transform="translate(466,682) scale(0.21)"><use href="#bB"/></g>
<g transform="translate(842,681) scale(0.26)"><use href="#bGy"/></g>
<g transform="translate(969,717) scale(0.29)"><use href="#bO"/></g>
<g transform="translate(697,682) scale(0.23)"><use href="#bB"/></g>
<g transform="translate(103,710) scale(0.21)"><use href="#bG"/></g>
<g transform="translate(684,596) scale(0.25)"><use href="#bB"/></g>
<g transform="translate(778,715) scale(0.32)"><use href="#bO"/></g>
<g transform="translate(-157,609) scale(0.31)"><use href="#bGy"/></g>
<g transform="translate(366,667) scale(0.24)"><use href="#bG"/></g>
<g transform="translate(359,708) scale(0.26)"><use href="#bG"/></g>
<g transform="translate(227,619) scale(0.29)"><use href="#bR"/></g>
<g transform="translate(924,715) scale(0.27)"><use href="#bO"/></g>
<g transform="translate(820,584) scale(0.31)"><use href="#bO"/></g>
<g transform="translate(449,641) scale(0.23)"><use href="#bG"/></g>
<g transform="translate(981,600) scale(0.29)"><use href="#bO"/></g>
<g transform="translate(-39,716) scale(0.22)"><use href="#bB"/></g>
<g transform="translate(686,634) scale(0.29)"><use href="#bGy"/></g>
<g transform="translate(1150,675) scale(0.31)"><use href="#bG"/></g>
<g transform="translate(744,610) scale(0.23)"><use href="#bO"/></g>
<g transform="translate(512,585) scale(0.27)"><use href="#bGy"/></g>
<g transform="translate(814,634) scale(0.22)"><use href="#bG"/></g>
<g transform="translate(13,604) scale(0.25)"><use href="#bGy"/></g>
<g transform="translate(644,666) scale(0.23)"><use href="#bG"/></g>
<g transform="translate(209,717) scale(0.22)"><use href="#bG"/></g>
<g transform="translate(195,651) scale(0.23)"><use href="#bG"/></g>
<g transform="translate(641,595) scale(0.25)"><use href="#bG"/></g>
<g transform="translate(404,688) scale(0.31)"><use href="#bGy"/></g>
<g transform="translate(462,594) scale(0.27)"><use href="#bG"/></g>
<g transform="translate(1015,713) scale(0.31)"><use href="#bO"/></g>
<g transform="translate(903,582) scale(0.3)"><use href="#bGy"/></g>
<g transform="translate(522,632) scale(0.28)"><use href="#bGy"/></g>
<g transform="translate(81,590) scale(0.24)"><use href="#bR"/></g>
<g transform="translate(-99,671) scale(0.28)"><use href="#bR"/></g>
<g transform="translate(136,640) scale(0.22)"><use href="#bB"/></g>
<g transform="translate(918,664) scale(0.21)"><use href="#bO"/></g>
<g transform="translate(867,609) scale(0.31)"><use href="#bG"/></g>
<g transform="translate(80,629) scale(0.28)"><use href="#bG"/></g>
</svg>