<svg xmlns="http://www.w3.org/2000/svg" viewBox="-60 -60 120 120">
  <g fill="#d63031">
    <path d="M0,0 C-16,-7 -28,-25 -25,-42 C-22,-55 -9,-58 0,-46 C9,-58 22,-55 25,-42 C28,-25 16,-7 0,0Z"/>
    <path transform="rotate(72)"  d="M0,0 C-16,-7 -28,-25 -25,-42 C-22,-55 -9,-58 0,-46 C9,-58 22,-55 25,-42 C28,-25 16,-7 0,0Z"/>
    <path transform="rotate(144)" d="M0,0 C-16,-7 -28,-25 -25,-42 C-22,-55 -9,-58 0,-46 C9,-58 22,-55 25,-42 C28,-25 16,-7 0,0Z"/>
    <path transform="rotate(216)" d="M0,0 C-16,-7 -28,-25 -25,-42 C-22,-55 -9,-58 0,-46 C9,-58 22,-55 25,-42 C28,-25 16,-7 0,0Z"/>
    <path transform="rotate(288)" d="M0,0 C-16,-7 -28,-25 -25,-42 C-22,-55 -9,-58 0,-46 C9,-58 22,-55 25,-42 C28,-25 16,-7 0,0Z"/>
  </g>
  <circle r="6" fill="#f2c84b"/>
</svg>